<?xml version="1.0" encoding="UTF-8" standalone="no"?><!DOCTYPE svg PUBLIC "-//W3C//DTD SVG 1.1//EN" "http://www.w3.org/Graphics/SVG/1.1/DTD/svg11.dtd"><svg width="100%" height="100%" viewBox="0 0 4000 4000" version="1.1" xmlns="http://www.w3.org/2000/svg" xmlns:xlink="http://www.w3.org/1999/xlink" xml:space="preserve" xmlns:serif="http://www.serif.com/" style="fill-rule:evenodd;clip-rule:evenodd;stroke-linejoin:round;stroke-miterlimit:2;"><g><g><path d="M2461.35,1576.75c-84.851,-38.934 -175.841,-67.618 -270.977,-84.047c-1.733,-0.317 -3.464,0.475 -4.356,2.06c-11.702,20.813 -24.664,47.966 -33.742,69.308c-102.324,-15.319 -204.124,-15.319 -304.351,-0c-9.079,-21.816 -22.512,-48.495 -34.267,-69.308c-0.892,-1.532 -2.623,-2.324 -4.355,-2.06c-95.084,16.376 -186.074,45.061 -270.978,84.047c-0.735,0.317 -1.365,0.845 -1.783,1.532c-172.59,257.845 -219.869,509.352 -196.675,757.741c0.105,1.215 0.787,2.377 1.731,3.116c113.87,83.623 224.172,134.39 332.426,168.04c1.732,0.529 3.568,-0.105 4.671,-1.532c25.607,-34.97 48.434,-71.842 68.006,-110.618c1.155,-2.271 0.052,-4.965 -2.309,-5.864c-36.207,-13.734 -70.683,-30.48 -103.847,-49.497c-2.623,-1.532 -2.833,-5.284 -0.42,-7.08c6.979,-5.23 13.96,-10.671 20.623,-16.165c1.206,-1.003 2.886,-1.215 4.304,-0.581c217.872,99.473 453.746,99.473 669.048,-0c1.417,-0.686 3.097,-0.475 4.355,0.529c6.666,5.493 13.645,10.987 20.676,16.217c2.414,1.796 2.256,5.548 -0.367,7.08c-33.164,19.386 -67.64,35.763 -103.9,49.445c-2.361,0.898 -3.411,3.645 -2.256,5.916c19.992,38.721 42.819,75.594 67.954,110.565c1.05,1.48 2.938,2.114 4.671,1.585c108.778,-33.65 219.08,-84.417 332.949,-168.04c0.998,-0.739 1.628,-1.849 1.733,-3.064c27.758,-287.165 -46.494,-536.609 -196.833,-757.741c-0.367,-0.739 -0.996,-1.267 -1.731,-1.584Zm-682.115,608.03c-65.594,-0 -119.643,-60.221 -119.643,-134.178c0,-73.958 53,-134.179 119.643,-134.179c67.166,0 120.691,60.75 119.641,134.179c0,73.957 -53,134.178 -119.641,134.178Zm442.359,-0c-65.593,-0 -119.641,-60.221 -119.641,-134.178c0,-73.958 52.998,-134.179 119.641,-134.179c67.168,0 120.691,60.75 119.643,134.179c-0,73.957 -52.475,134.178 -119.643,134.178Z" style="fill:#b5b5b5;fill-rule:nonzero;"/><clipPath id="_clip1"><path d="M2461.35,1576.75c-84.851,-38.934 -175.841,-67.618 -270.977,-84.047c-1.733,-0.317 -3.464,0.475 -4.356,2.06c-11.702,20.813 -24.664,47.966 -33.742,69.308c-102.324,-15.319 -204.124,-15.319 -304.351,-0c-9.079,-21.816 -22.512,-48.495 -34.267,-69.308c-0.892,-1.532 -2.623,-2.324 -4.355,-2.06c-95.084,16.376 -186.074,45.061 -270.978,84.047c-0.735,0.317 -1.365,0.845 -1.783,1.532c-172.59,257.845 -219.869,509.352 -196.675,757.741c0.105,1.215 0.787,2.377 1.731,3.116c113.87,83.623 224.172,134.39 332.426,168.04c1.732,0.529 3.568,-0.105 4.671,-1.532c25.607,-34.97 48.434,-71.842 68.006,-110.618c1.155,-2.271 0.052,-4.965 -2.309,-5.864c-36.207,-13.734 -70.683,-30.48 -103.847,-49.497c-2.623,-1.532 -2.833,-5.284 -0.42,-7.08c6.979,-5.23 13.96,-10.671 20.623,-16.165c1.206,-1.003 2.886,-1.215 4.304,-0.581c217.872,99.473 453.746,99.473 669.048,-0c1.417,-0.686 3.097,-0.475 4.355,0.529c6.666,5.493 13.645,10.987 20.676,16.217c2.414,1.796 2.256,5.548 -0.367,7.08c-33.164,19.386 -67.64,35.763 -103.9,49.445c-2.361,0.898 -3.411,3.645 -2.256,5.916c19.992,38.721 42.819,75.594 67.954,110.565c1.05,1.48 2.938,2.114 4.671,1.585c108.778,-33.65 219.08,-84.417 332.949,-168.04c0.998,-0.739 1.628,-1.849 1.733,-3.064c27.758,-287.165 -46.494,-536.609 -196.833,-757.741c-0.367,-0.739 -0.996,-1.267 -1.731,-1.584Zm-682.115,608.03c-65.594,-0 -119.643,-60.221 -119.643,-134.178c0,-73.958 53,-134.179 119.643,-134.179c67.166,0 120.691,60.75 119.641,134.179c0,73.957 -53,134.178 -119.641,134.178Zm442.359,-0c-65.593,-0 -119.641,-60.221 -119.641,-134.178c0,-73.958 52.998,-134.179 119.641,-134.179c67.168,0 120.691,60.75 119.643,134.179c-0,73.957 -52.475,134.178 -119.643,134.178Z" clip-rule="nonzero"/></clipPath><g clip-path="url(#_clip1)"><rect x="-755.636" y="-922.392" width="5731.62" height="5731.62" style="fill:url(#_Linear2);"/></g><path d="M2212.92,2812.95l-102.559,-77.73l-18.265,-18.814l-70.767,70.767l17.793,16.994l66.828,100.223l90.125,98.696l103.878,-96.91l-87.033,-93.226Zm-32.123,-261.592l9.808,-9.333l88.122,87.284c0.621,0.549 1.276,0.766 1.859,0.766c1.68,0 3.063,-1.531 3.063,-1.531c-0,-0 97.565,-96.799 97.896,-97.127c2.88,-2.846 0,-4.411 0,-4.411l-75.254,-75.765l-0.111,0.11l-10.315,-10.099l5.759,-5.542l12.323,1.422l-2.331,-16.334l3.097,-3.136l-4.628,-23.553c-16.079,-22.787 -60.125,-59.283 -60.125,-59.283l-23.042,-4.156l-2.331,3.099l-17.354,-2.589l1.676,14.803l1.093,1.094l-5.143,5.177l-28.435,-27.819c-0,0 -165.019,-89.617 -173.802,-93.773c-4.96,-2.297 -8.605,-3.829 -12.106,-3.829c-2.697,0 -5.321,0.912 -8.35,3.063c-7.001,4.922 -2.88,14.839 -2.88,14.839l102.597,189.589l20.528,20.345l-6.419,6.416l-2.369,2.37l-16.406,-2.26l2.514,16.261l-4.739,4.74l-0.838,-0.839c-0.765,-0.766 -1.824,-1.167 -2.845,-1.167c-1.021,0 -2.042,0.401 -2.842,1.167c-1.569,1.568 -1.569,4.12 0,5.688l0.838,0.838l-2.263,2.297l-0.582,-0.62c-0.8,-0.765 -1.821,-1.167 -2.842,-1.167c-1.059,0 -2.08,0.402 -2.845,1.167c-1.566,1.568 -1.566,4.12 -0,5.688l0.621,0.62l-43.17,43.388l-0.983,-0.986c-0.804,-0.766 -1.825,-1.166 -2.845,-1.166c-1.021,0 -2.042,0.4 -2.842,1.166c-1.569,1.569 -1.569,4.121 0,5.687l1.021,0.986l-2.297,2.297l-0.766,-0.731c-0.765,-0.8 -1.824,-1.204 -2.807,-1.204c-1.059,-0 -2.08,0.404 -2.88,1.204c-1.531,1.569 -1.531,4.083 0,5.653l0.766,0.765l-5.615,5.688l-0.765,7.218l2.952,3.028l-0.073,0.034l-3.573,3.646l-232.941,232.906l-3.026,-2.518l-9.661,1.386l-5.47,5.543l-0.364,-0.366c-0.802,-0.804 -1.823,-1.204 -2.844,-1.204c-1.021,0 -2.078,0.4 -2.844,1.204c-1.568,1.57 -1.568,4.084 0,5.653l0.438,0.434l-2.261,2.335l-0.218,-0.217c-0.766,-0.804 -1.823,-1.204 -2.844,-1.204c-1.021,0 -2.042,0.4 -2.844,1.204c-1.532,1.566 -1.532,4.084 -0,5.649l0.255,0.294l-42.621,43.348l-0.875,-0.876c-0.802,-0.8 -1.787,-1.166 -2.844,-1.166c-1.021,0 -2.041,0.366 -2.844,1.166c-1.568,1.569 -1.568,4.121 0,5.691l0.948,0.91l-2.26,2.297l-0.693,-0.693c-0.802,-0.766 -1.823,-1.166 -2.88,-1.166c-0.985,0 -2.042,0.4 -2.808,1.166c-1.568,1.57 -1.568,4.122 0,5.687l0.729,0.766l-3.172,3.245l-16.515,-2.952l1.239,18.448l-5.214,5.321l4.521,24.867c0,-0 6.928,21.655 21.183,36.024c13.818,13.926 34.892,20.596 35.804,21.289l23.807,4.156l5.87,-5.76l16.407,2.663l-2.698,-16.223l4.995,-4.888l2.297,2.297c0.766,0.766 1.787,1.166 2.808,1.166c1.02,-0 2.077,-0.4 2.843,-1.166c1.568,-1.603 1.568,-4.121 0,-5.687l-2.26,-2.263l2.333,-2.258l1.969,1.969c0.766,0.8 1.823,1.204 2.844,1.204c1.021,-0 2.042,-0.404 2.844,-1.204c1.568,-1.569 1.568,-4.083 -0,-5.653l-1.933,-1.969l43.278,-42.694l1.896,1.897c0.765,0.804 1.823,1.166 2.844,1.166c1.02,-0 2.041,-0.362 2.843,-1.166c1.531,-1.569 1.531,-4.121 0,-5.687l-1.859,-1.824l2.297,-2.297l1.604,1.603c0.766,0.766 1.786,1.17 2.807,1.17c1.058,-0 2.079,-0.404 2.844,-1.17c1.568,-1.565 1.568,-4.117 0,-5.687l-1.568,-1.565l4.849,-4.743l1.751,-10.387l-2.589,-2.591l0.037,-0.038l4.703,-4.666l231.373,-231.443l-0.111,-0.221l4.522,4.67l7.257,-0.804l6.525,-6.563l1.054,1.059c0.804,0.766 1.825,1.166 2.846,1.166c1.021,-0 2.08,-0.4 2.846,-1.166c1.565,-1.569 1.565,-4.122 -0,-5.687l-1.059,-1.059l2.297,-2.259l0.804,0.8c0.765,0.766 1.786,1.165 2.841,1.165c1.021,0 2.042,-0.399 2.807,-1.165c1.57,-1.565 1.57,-4.118 0,-5.687l-0.799,-0.838l43.237,-43.315l1.132,1.132c0.766,0.766 1.786,1.165 2.807,1.165c1.059,0 2.08,-0.399 2.846,-1.165c1.565,-1.57 1.565,-4.122 -0,-5.687l-1.131,-1.132l2.296,-2.297l0.877,0.911c0.799,0.765 1.82,1.165 2.841,1.165c1.021,0 2.042,-0.4 2.846,-1.165c1.565,-1.604 1.565,-4.118 -0,-5.687l-0.876,-0.911l4.81,-4.815l16.079,2.518l-2.624,-16.044Zm-439.365,-195.417c0,0 9.407,-14.073 13.308,-20.308c3.901,-6.234 -10.099,-20.964 -15.532,-25.631c-5.432,-4.666 -14,-2.333 -14,-2.333c-68.362,30.298 -102.561,92.461 -107.227,104.894c-4.667,12.433 11.885,25.996 24.099,32.631c5.615,3.063 14.548,-3.719 20.053,-8.75l1.859,-1.896l2.917,-2.953l185.98,185.251l25.412,-25.415l46.705,-46.704l-183.829,-188.53l0.255,-0.256Z" style="fill:#5165f6;fill-rule:nonzero;"/><clipPath id="_clip3"><path d="M2212.92,2812.95l-102.559,-77.73l-18.265,-18.814l-70.767,70.767l17.793,16.994l66.828,100.223l90.125,98.696l103.878,-96.91l-87.033,-93.226Zm-32.123,-261.592l9.808,-9.333l88.122,87.284c0.621,0.549 1.276,0.766 1.859,0.766c1.68,0 3.063,-1.531 3.063,-1.531c-0,-0 97.565,-96.799 97.896,-97.127c2.88,-2.846 0,-4.411 0,-4.411l-75.254,-75.765l-0.111,0.11l-10.315,-10.099l5.759,-5.542l12.323,1.422l-2.331,-16.334l3.097,-3.136l-4.628,-23.553c-16.079,-22.787 -60.125,-59.283 -60.125,-59.283l-23.042,-4.156l-2.331,3.099l-17.354,-2.589l1.676,14.803l1.093,1.094l-5.143,5.177l-28.435,-27.819c-0,0 -165.019,-89.617 -173.802,-93.773c-4.96,-2.297 -8.605,-3.829 -12.106,-3.829c-2.697,0 -5.321,0.912 -8.35,3.063c-7.001,4.922 -2.88,14.839 -2.88,14.839l102.597,189.589l20.528,20.345l-6.419,6.416l-2.369,2.37l-16.406,-2.26l2.514,16.261l-4.739,4.74l-0.838,-0.839c-0.765,-0.766 -1.824,-1.167 -2.845,-1.167c-1.021,0 -2.042,0.401 -2.842,1.167c-1.569,1.568 -1.569,4.12 0,5.688l0.838,0.838l-2.263,2.297l-0.582,-0.62c-0.8,-0.765 -1.821,-1.167 -2.842,-1.167c-1.059,0 -2.08,0.402 -2.845,1.167c-1.566,1.568 -1.566,4.12 -0,5.688l0.621,0.62l-43.17,43.388l-0.983,-0.986c-0.804,-0.766 -1.825,-1.166 -2.845,-1.166c-1.021,0 -2.042,0.4 -2.842,1.166c-1.569,1.569 -1.569,4.121 0,5.687l1.021,0.986l-2.297,2.297l-0.766,-0.731c-0.765,-0.8 -1.824,-1.204 -2.807,-1.204c-1.059,-0 -2.08,0.404 -2.88,1.204c-1.531,1.569 -1.531,4.083 0,5.653l0.766,0.765l-5.615,5.688l-0.765,7.218l2.952,3.028l-0.073,0.034l-3.573,3.646l-232.941,232.906l-3.026,-2.518l-9.661,1.386l-5.47,5.543l-0.364,-0.366c-0.802,-0.804 -1.823,-1.204 -2.844,-1.204c-1.021,0 -2.078,0.4 -2.844,1.204c-1.568,1.57 -1.568,4.084 0,5.653l0.438,0.434l-2.261,2.335l-0.218,-0.217c-0.766,-0.804 -1.823,-1.204 -2.844,-1.204c-1.021,0 -2.042,0.4 -2.844,1.204c-1.532,1.566 -1.532,4.084 -0,5.649l0.255,0.294l-42.621,43.348l-0.875,-0.876c-0.802,-0.8 -1.787,-1.166 -2.844,-1.166c-1.021,0 -2.041,0.366 -2.844,1.166c-1.568,1.569 -1.568,4.121 0,5.691l0.948,0.91l-2.26,2.297l-0.693,-0.693c-0.802,-0.766 -1.823,-1.166 -2.88,-1.166c-0.985,0 -2.042,0.4 -2.808,1.166c-1.568,1.57 -1.568,4.122 0,5.687l0.729,0.766l-3.172,3.245l-16.515,-2.952l1.239,18.448l-5.214,5.321l4.521,24.867c0,-0 6.928,21.655 21.183,36.024c13.818,13.926 34.892,20.596 35.804,21.289l23.807,4.156l5.87,-5.76l16.407,2.663l-2.698,-16.223l4.995,-4.888l2.297,2.297c0.766,0.766 1.787,1.166 2.808,1.166c1.02,-0 2.077,-0.4 2.843,-1.166c1.568,-1.603 1.568,-4.121 0,-5.687l-2.26,-2.263l2.333,-2.258l1.969,1.969c0.766,0.8 1.823,1.204 2.844,1.204c1.021,-0 2.042,-0.404 2.844,-1.204c1.568,-1.569 1.568,-4.083 -0,-5.653l-1.933,-1.969l43.278,-42.694l1.896,1.897c0.765,0.804 1.823,1.166 2.844,1.166c1.02,-0 2.041,-0.362 2.843,-1.166c1.531,-1.569 1.531,-4.121 0,-5.687l-1.859,-1.824l2.297,-2.297l1.604,1.603c0.766,0.766 1.786,1.17 2.807,1.17c1.058,-0 2.079,-0.404 2.844,-1.17c1.568,-1.565 1.568,-4.117 0,-5.687l-1.568,-1.565l4.849,-4.743l1.751,-10.387l-2.589,-2.591l0.037,-0.038l4.703,-4.666l231.373,-231.443l-0.111,-0.221l4.522,4.67l7.257,-0.804l6.525,-6.563l1.054,1.059c0.804,0.766 1.825,1.166 2.846,1.166c1.021,-0 2.08,-0.4 2.846,-1.166c1.565,-1.569 1.565,-4.122 -0,-5.687l-1.059,-1.059l2.297,-2.259l0.804,0.8c0.765,0.766 1.786,1.165 2.841,1.165c1.021,0 2.042,-0.399 2.807,-1.165c1.57,-1.565 1.57,-4.118 0,-5.687l-0.799,-0.838l43.237,-43.315l1.132,1.132c0.766,0.766 1.786,1.165 2.807,1.165c1.059,0 2.08,-0.399 2.846,-1.165c1.565,-1.57 1.565,-4.122 -0,-5.687l-1.131,-1.132l2.296,-2.297l0.877,0.911c0.799,0.765 1.82,1.165 2.841,1.165c1.021,0 2.042,-0.4 2.846,-1.165c1.565,-1.604 1.565,-4.118 -0,-5.687l-0.876,-0.911l4.81,-4.815l16.079,2.518l-2.624,-16.044Zm-439.365,-195.417c0,0 9.407,-14.073 13.308,-20.308c3.901,-6.234 -10.099,-20.964 -15.532,-25.631c-5.432,-4.666 -14,-2.333 -14,-2.333c-68.362,30.298 -102.561,92.461 -107.227,104.894c-4.667,12.433 11.885,25.996 24.099,32.631c5.615,3.063 14.548,-3.719 20.053,-8.75l1.859,-1.896l2.917,-2.953l185.98,185.251l25.412,-25.415l46.705,-46.704l-183.829,-188.53l0.255,-0.256Z" clip-rule="nonzero"/></clipPath><g clip-path="url(#_clip3)"><rect x="-755.636" y="-922.392" width="5731.62" height="5731.62" style="fill:#377da1;"/></g></g><path d="M3547.6,1600l452.4,-0l0,800l-452.2,0c-48.2,186.2 -127.8,359.6 -234.8,512.8l287,287.2l-400,400l-287,-287.2c-153.6,107 -326.6,186.8 -513,234.8l0,452.4l-800,0l-0,-452.4c-186.2,-48 -359.4,-127.8 -512.8,-234.8l-287.2,287.2l-400,-400l287.2,-287.2c-107,-153 -186.8,-326.4 -234.8,-512.8l-452.4,0l-0,-800l452.4,-0c48,-186.4 127.6,-359.6 234.8,-512.8l-287.2,-287.2l400,-400l287.2,287.2c153.2,-107.2 326.4,-186.8 512.8,-234.8l-0,-452.4l800,-0l0,452.2c186.4,48.2 359.4,127.8 513,234.8l287,-287.2l400,400l-287.2,287.4c107,153.2 186.8,326.6 234.8,512.8Zm-1547.6,1200c441.82,0 800,-358.18 800,-800c0,-441.828 -358.18,-800 -800,-800c-441.828,-0 -800,358.172 -800,800c-0,441.82 358.172,800 800,800Z"/><clipPath id="_clip4"><path d="M3547.6,1600l452.4,-0l0,800l-452.2,0c-48.2,186.2 -127.8,359.6 -234.8,512.8l287,287.2l-400,400l-287,-287.2c-153.6,107 -326.6,186.8 -513,234.8l0,452.4l-800,0l-0,-452.4c-186.2,-48 -359.4,-127.8 -512.8,-234.8l-287.2,287.2l-400,-400l287.2,-287.2c-107,-153 -186.8,-326.4 -234.8,-512.8l-452.4,0l-0,-800l452.4,-0c48,-186.4 127.6,-359.6 234.8,-512.8l-287.2,-287.2l400,-400l287.2,287.2c153.2,-107.2 326.4,-186.8 512.8,-234.8l-0,-452.4l800,-0l0,452.2c186.4,48.2 359.4,127.8 513,234.8l287,-287.2l400,400l-287.2,287.4c107,153.2 186.8,326.6 234.8,512.8Zm-1547.6,1200c441.82,0 800,-358.18 800,-800c0,-441.828 -358.18,-800 -800,-800c-441.828,-0 -800,358.172 -800,800c-0,441.82 358.172,800 800,800Z"/></clipPath><g clip-path="url(#_clip4)"><rect x="-755.636" y="-922.392" width="5731.62" height="5731.62" style="fill:url(#_Linear5);"/></g></g><defs><linearGradient id="_Linear2" x1="0" y1="0" x2="1" y2="0" gradientUnits="userSpaceOnUse" gradientTransform="matrix(5731.62,0,0,5731.62,-755.636,1943.42)"><stop offset="0" style="stop-color:#749992;stop-opacity:1"/><stop offset="1" style="stop-color:#588fcd;stop-opacity:1"/></linearGradient><linearGradient id="_Linear5" x1="0" y1="0" x2="1" y2="0" gradientUnits="userSpaceOnUse" gradientTransform="matrix(5731.62,0,0,5731.62,-755.636,1943.42)"><stop offset="0" style="stop-color:#749992;stop-opacity:1"/><stop offset="1" style="stop-color:#588fcd;stop-opacity:1"/></linearGradient></defs></svg>