<?xml version="1.0" encoding="UTF-8" standalone="no"?><!DOCTYPE svg PUBLIC "-//W3C//DTD SVG 1.1//EN" "http://www.w3.org/Graphics/SVG/1.1/DTD/svg11.dtd"><svg width="100%" height="100%" viewBox="0 0 968 720" version="1.1" xmlns="http://www.w3.org/2000/svg" xmlns:xlink="http://www.w3.org/1999/xlink" xml:space="preserve" xmlns:serif="http://www.serif.com/" style="fill-rule:evenodd;clip-rule:evenodd;stroke-linejoin:round;stroke-miterlimit:2;"><g><g><g><path d="M533.486,169.13c-9.101,-4.176 -18.861,-7.253 -29.066,-9.015c-0.186,-0.034 -0.372,0.051 -0.467,0.221c-1.256,2.232 -2.646,5.145 -3.62,7.434c-10.976,-1.643 -21.895,-1.643 -32.646,0c-0.974,-2.34 -2.415,-5.202 -3.676,-7.434c-0.095,-0.165 -0.281,-0.25 -0.467,-0.221c-10.199,1.756 -19.959,4.833 -29.066,9.015c-0.079,0.034 -0.147,0.091 -0.191,0.164c-18.513,27.658 -23.585,54.636 -21.097,81.279c0.011,0.131 0.085,0.255 0.186,0.335c12.214,8.97 24.046,14.415 35.658,18.024c0.185,0.057 0.382,-0.011 0.501,-0.164c2.746,-3.751 5.195,-7.706 7.294,-11.865c0.124,-0.244 0.006,-0.533 -0.247,-0.629c-3.884,-1.473 -7.582,-3.27 -11.14,-5.31c-0.281,-0.164 -0.303,-0.566 -0.045,-0.759c0.749,-0.561 1.498,-1.145 2.213,-1.734c0.129,-0.108 0.309,-0.13 0.461,-0.062c23.37,10.67 48.671,10.67 71.766,-0c0.152,-0.074 0.332,-0.051 0.467,0.056c0.715,0.59 1.463,1.179 2.218,1.74c0.258,0.193 0.242,0.595 -0.04,0.759c-3.557,2.08 -7.255,3.837 -11.145,5.304c-0.253,0.096 -0.366,0.391 -0.242,0.635c2.145,4.153 4.593,8.108 7.289,11.86c0.113,0.158 0.316,0.226 0.501,0.169c11.669,-3.609 23.5,-9.054 35.714,-18.024c0.107,-0.08 0.175,-0.199 0.186,-0.329c2.978,-30.803 -4.987,-57.559 -21.113,-81.279c-0.04,-0.079 -0.107,-0.136 -0.186,-0.17Zm-73.167,65.22c-7.036,0 -12.833,-6.459 -12.833,-14.392c-0,-7.933 5.685,-14.393 12.833,-14.393c7.205,0 12.946,6.516 12.833,14.393c0,7.933 -5.685,14.392 -12.833,14.392Zm47.45,0c-7.036,0 -12.834,-6.459 -12.834,-14.392c0,-7.933 5.685,-14.393 12.834,-14.393c7.204,0 12.946,6.516 12.833,14.393c0,7.933 -5.629,14.392 -12.833,14.392Z" style="fill:#b5b5b5;fill-rule:nonzero;"/><clipPath id="_clip1"><path d="M533.486,169.13c-9.101,-4.176 -18.861,-7.253 -29.066,-9.015c-0.186,-0.034 -0.372,0.051 -0.467,0.221c-1.256,2.232 -2.646,5.145 -3.62,7.434c-10.976,-1.643 -21.895,-1.643 -32.646,0c-0.974,-2.34 -2.415,-5.202 -3.676,-7.434c-0.095,-0.165 -0.281,-0.25 -0.467,-0.221c-10.199,1.756 -19.959,4.833 -29.066,9.015c-0.079,0.034 -0.147,0.091 -0.191,0.164c-18.513,27.658 -23.585,54.636 -21.097,81.279c0.011,0.131 0.085,0.255 0.186,0.335c12.214,8.97 24.046,14.415 35.658,18.024c0.185,0.057 0.382,-0.011 0.501,-0.164c2.746,-3.751 5.195,-7.706 7.294,-11.865c0.124,-0.244 0.006,-0.533 -0.247,-0.629c-3.884,-1.473 -7.582,-3.27 -11.14,-5.31c-0.281,-0.164 -0.303,-0.566 -0.045,-0.759c0.749,-0.561 1.498,-1.145 2.213,-1.734c0.129,-0.108 0.309,-0.13 0.461,-0.062c23.37,10.67 48.671,10.67 71.766,-0c0.152,-0.074 0.332,-0.051 0.467,0.056c0.715,0.59 1.463,1.179 2.218,1.74c0.258,0.193 0.242,0.595 -0.04,0.759c-3.557,2.08 -7.255,3.837 -11.145,5.304c-0.253,0.096 -0.366,0.391 -0.242,0.635c2.145,4.153 4.593,8.108 7.289,11.86c0.113,0.158 0.316,0.226 0.501,0.169c11.669,-3.609 23.5,-9.054 35.714,-18.024c0.107,-0.08 0.175,-0.199 0.186,-0.329c2.978,-30.803 -4.987,-57.559 -21.113,-81.279c-0.04,-0.079 -0.107,-0.136 -0.186,-0.17Zm-73.167,65.22c-7.036,0 -12.833,-6.459 -12.833,-14.392c-0,-7.933 5.685,-14.393 12.833,-14.393c7.205,0 12.946,6.516 12.833,14.393c0,7.933 -5.685,14.392 -12.833,14.392Zm47.45,0c-7.036,0 -12.834,-6.459 -12.834,-14.392c0,-7.933 5.685,-14.393 12.834,-14.393c7.204,0 12.946,6.516 12.833,14.393c0,7.933 -5.629,14.392 -12.833,14.392Z" clip-rule="nonzero"/></clipPath><g clip-path="url(#_clip1)"><rect x="188.417" y="-98.94" width="614.802" height="614.802" style="fill:url(#_Linear2);"/></g><path d="M506.839,301.73l-11.001,-8.337l-1.959,-2.018l-7.591,7.59l1.908,1.823l7.169,10.751l9.667,10.586l11.143,-10.395l-9.336,-10Zm-3.446,-28.059l1.052,-1.001l9.453,9.362c0.066,0.059 0.137,0.082 0.199,0.082c0.18,0 0.329,-0.164 0.329,-0.164c-0,0 10.465,-10.383 10.501,-10.418c0.308,-0.306 -0,-0.473 -0,-0.473l-8.073,-8.127l-0.012,0.011l-1.106,-1.083l0.618,-0.594l1.322,0.152l-0.25,-1.752l0.332,-0.336l-0.497,-2.527c-1.724,-2.444 -6.449,-6.359 -6.449,-6.359l-2.472,-0.445l-0.25,0.332l-1.861,-0.278l0.18,1.588l0.117,0.117l-0.552,0.556l-3.05,-2.984c0,-0 -17.701,-9.613 -18.643,-10.059c-0.532,-0.246 -0.923,-0.41 -1.298,-0.41c-0.289,-0 -0.571,0.097 -0.896,0.328c-0.751,0.528 -0.309,1.592 -0.309,1.592l11.005,20.336l2.202,2.182l-0.688,0.689l-0.254,0.254l-1.76,-0.243l0.269,1.745l-0.508,0.508l-0.09,-0.09c-0.082,-0.082 -0.195,-0.125 -0.305,-0.125c-0.109,-0 -0.219,0.043 -0.305,0.125c-0.168,0.168 -0.168,0.442 0,0.61l0.09,0.09l-0.243,0.246l-0.062,-0.066c-0.086,-0.082 -0.195,-0.125 -0.305,-0.125c-0.113,-0 -0.223,0.043 -0.305,0.125c-0.168,0.168 -0.168,0.442 -0,0.61l0.066,0.067l-4.63,4.654l-0.106,-0.106c-0.086,-0.082 -0.195,-0.125 -0.305,-0.125c-0.109,-0 -0.219,0.043 -0.305,0.125c-0.168,0.168 -0.168,0.442 0,0.61l0.11,0.106l-0.246,0.246l-0.083,-0.078c-0.082,-0.086 -0.195,-0.13 -0.301,-0.13c-0.113,0 -0.223,0.044 -0.309,0.13c-0.164,0.168 -0.164,0.438 0,0.606l0.083,0.082l-0.603,0.61l-0.082,0.774l0.317,0.325l-0.008,0.004l-0.383,0.391l-24.987,24.983l-0.324,-0.271l-1.037,0.149l-0.586,0.595l-0.039,-0.04c-0.086,-0.086 -0.196,-0.129 -0.305,-0.129c-0.11,0 -0.223,0.043 -0.305,0.129c-0.169,0.169 -0.169,0.438 -0,0.607l0.047,0.046l-0.243,0.251l-0.023,-0.023c-0.083,-0.087 -0.196,-0.13 -0.305,-0.13c-0.11,0 -0.219,0.043 -0.305,0.13c-0.165,0.167 -0.165,0.438 -0,0.605l0.027,0.032l-4.572,4.65l-0.094,-0.094c-0.086,-0.086 -0.191,-0.125 -0.305,-0.125c-0.109,-0 -0.219,0.039 -0.305,0.125c-0.168,0.168 -0.168,0.442 0,0.61l0.102,0.098l-0.243,0.246l-0.074,-0.074c-0.086,-0.082 -0.195,-0.125 -0.309,-0.125c-0.105,-0 -0.219,0.043 -0.301,0.125c-0.168,0.168 -0.168,0.442 0,0.61l0.078,0.082l-0.34,0.348l-1.772,-0.317l0.133,1.979l-0.559,0.571l0.485,2.667c0,0 0.743,2.323 2.272,3.864c1.482,1.494 3.743,2.21 3.841,2.284l2.553,0.446l0.63,-0.618l1.76,0.286l-0.289,-1.741l0.535,-0.524l0.247,0.247c0.082,0.082 0.191,0.125 0.301,0.125c0.109,-0 0.223,-0.043 0.305,-0.125c0.168,-0.172 0.168,-0.442 -0,-0.61l-0.243,-0.243l0.251,-0.242l0.211,0.211c0.082,0.086 0.195,0.129 0.305,0.129c0.109,-0 0.219,-0.043 0.305,-0.129c0.168,-0.169 0.168,-0.438 -0,-0.607l-0.207,-0.211l4.642,-4.579l0.203,0.203c0.082,0.086 0.196,0.125 0.305,0.125c0.11,0 0.219,-0.039 0.305,-0.125c0.165,-0.168 0.165,-0.442 0,-0.61l-0.199,-0.196l0.246,-0.246l0.172,0.172c0.082,0.082 0.192,0.126 0.301,0.126c0.114,-0 0.223,-0.044 0.305,-0.126c0.169,-0.168 0.169,-0.442 0,-0.61l-0.168,-0.168l0.52,-0.509l0.188,-1.114l-0.277,-0.278l0.003,-0.004l0.505,-0.5l24.818,-24.826l-0.012,-0.024l0.485,0.501l0.779,-0.086l0.7,-0.704l0.113,0.114c0.086,0.082 0.195,0.125 0.305,0.125c0.109,-0 0.223,-0.043 0.305,-0.125c0.168,-0.169 0.168,-0.442 0,-0.61l-0.113,-0.114l0.246,-0.242l0.086,0.086c0.082,0.082 0.192,0.125 0.305,0.125c0.11,-0 0.219,-0.043 0.301,-0.125c0.168,-0.168 0.168,-0.442 0,-0.61l-0.086,-0.09l4.638,-4.646l0.122,0.121c0.082,0.082 0.191,0.125 0.301,0.125c0.113,-0 0.223,-0.043 0.305,-0.125c0.168,-0.168 0.168,-0.442 0,-0.61l-0.121,-0.122l0.246,-0.246l0.094,0.098c0.086,0.082 0.195,0.125 0.305,0.125c0.109,-0 0.219,-0.043 0.305,-0.125c0.168,-0.172 0.168,-0.442 0,-0.61l-0.094,-0.098l0.516,-0.516l1.725,0.27l-0.282,-1.721Zm-47.128,-20.962c-0,0 1.009,-1.509 1.427,-2.178c0.419,-0.669 -1.083,-2.249 -1.666,-2.749c-0.582,-0.501 -1.501,-0.251 -1.501,-0.251c-7.333,3.25 -11.002,9.918 -11.502,11.252c-0.501,1.333 1.275,2.788 2.585,3.5c0.602,0.329 1.56,-0.399 2.151,-0.939l0.199,-0.203l0.313,-0.317l19.949,19.871l2.726,-2.726l5.01,-5.01l-19.719,-20.222l0.028,-0.028Z" style="fill:#5165f6;fill-rule:nonzero;"/><clipPath id="_clip3"><path d="M506.839,301.73l-11.001,-8.337l-1.959,-2.018l-7.591,7.59l1.908,1.823l7.169,10.751l9.667,10.586l11.143,-10.395l-9.336,-10Zm-3.446,-28.059l1.052,-1.001l9.453,9.362c0.066,0.059 0.137,0.082 0.199,0.082c0.18,0 0.329,-0.164 0.329,-0.164c-0,0 10.465,-10.383 10.501,-10.418c0.308,-0.306 -0,-0.473 -0,-0.473l-8.073,-8.127l-0.012,0.011l-1.106,-1.083l0.618,-0.594l1.322,0.152l-0.25,-1.752l0.332,-0.336l-0.497,-2.527c-1.724,-2.444 -6.449,-6.359 -6.449,-6.359l-2.472,-0.445l-0.25,0.332l-1.861,-0.278l0.18,1.588l0.117,0.117l-0.552,0.556l-3.05,-2.984c0,-0 -17.701,-9.613 -18.643,-10.059c-0.532,-0.246 -0.923,-0.41 -1.298,-0.41c-0.289,-0 -0.571,0.097 -0.896,0.328c-0.751,0.528 -0.309,1.592 -0.309,1.592l11.005,20.336l2.202,2.182l-0.688,0.689l-0.254,0.254l-1.76,-0.243l0.269,1.745l-0.508,0.508l-0.09,-0.09c-0.082,-0.082 -0.195,-0.125 -0.305,-0.125c-0.109,-0 -0.219,0.043 -0.305,0.125c-0.168,0.168 -0.168,0.442 0,0.61l0.09,0.09l-0.243,0.246l-0.062,-0.066c-0.086,-0.082 -0.195,-0.125 -0.305,-0.125c-0.113,-0 -0.223,0.043 -0.305,0.125c-0.168,0.168 -0.168,0.442 -0,0.61l0.066,0.067l-4.63,4.654l-0.106,-0.106c-0.086,-0.082 -0.195,-0.125 -0.305,-0.125c-0.109,-0 -0.219,0.043 -0.305,0.125c-0.168,0.168 -0.168,0.442 0,0.61l0.11,0.106l-0.246,0.246l-0.083,-0.078c-0.082,-0.086 -0.195,-0.13 -0.301,-0.13c-0.113,0 -0.223,0.044 -0.309,0.13c-0.164,0.168 -0.164,0.438 0,0.606l0.083,0.082l-0.603,0.61l-0.082,0.774l0.317,0.325l-0.008,0.004l-0.383,0.391l-24.987,24.983l-0.324,-0.271l-1.037,0.149l-0.586,0.595l-0.039,-0.04c-0.086,-0.086 -0.196,-0.129 -0.305,-0.129c-0.11,0 -0.223,0.043 -0.305,0.129c-0.169,0.169 -0.169,0.438 -0,0.607l0.047,0.046l-0.243,0.251l-0.023,-0.023c-0.083,-0.087 -0.196,-0.13 -0.305,-0.13c-0.11,0 -0.219,0.043 -0.305,0.13c-0.165,0.167 -0.165,0.438 -0,0.605l0.027,0.032l-4.572,4.65l-0.094,-0.094c-0.086,-0.086 -0.191,-0.125 -0.305,-0.125c-0.109,-0 -0.219,0.039 -0.305,0.125c-0.168,0.168 -0.168,0.442 0,0.61l0.102,0.098l-0.243,0.246l-0.074,-0.074c-0.086,-0.082 -0.195,-0.125 -0.309,-0.125c-0.105,-0 -0.219,0.043 -0.301,0.125c-0.168,0.168 -0.168,0.442 0,0.61l0.078,0.082l-0.34,0.348l-1.772,-0.317l0.133,1.979l-0.559,0.571l0.485,2.667c0,0 0.743,2.323 2.272,3.864c1.482,1.494 3.743,2.21 3.841,2.284l2.553,0.446l0.63,-0.618l1.76,0.286l-0.289,-1.741l0.535,-0.524l0.247,0.247c0.082,0.082 0.191,0.125 0.301,0.125c0.109,-0 0.223,-0.043 0.305,-0.125c0.168,-0.172 0.168,-0.442 -0,-0.61l-0.243,-0.243l0.251,-0.242l0.211,0.211c0.082,0.086 0.195,0.129 0.305,0.129c0.109,-0 0.219,-0.043 0.305,-0.129c0.168,-0.169 0.168,-0.438 -0,-0.607l-0.207,-0.211l4.642,-4.579l0.203,0.203c0.082,0.086 0.196,0.125 0.305,0.125c0.11,0 0.219,-0.039 0.305,-0.125c0.165,-0.168 0.165,-0.442 0,-0.61l-0.199,-0.196l0.246,-0.246l0.172,0.172c0.082,0.082 0.192,0.126 0.301,0.126c0.114,-0 0.223,-0.044 0.305,-0.126c0.169,-0.168 0.169,-0.442 0,-0.61l-0.168,-0.168l0.52,-0.509l0.188,-1.114l-0.277,-0.278l0.003,-0.004l0.505,-0.5l24.818,-24.826l-0.012,-0.024l0.485,0.501l0.779,-0.086l0.7,-0.704l0.113,0.114c0.086,0.082 0.195,0.125 0.305,0.125c0.109,-0 0.223,-0.043 0.305,-0.125c0.168,-0.169 0.168,-0.442 0,-0.61l-0.113,-0.114l0.246,-0.242l0.086,0.086c0.082,0.082 0.192,0.125 0.305,0.125c0.11,-0 0.219,-0.043 0.301,-0.125c0.168,-0.168 0.168,-0.442 0,-0.61l-0.086,-0.09l4.638,-4.646l0.122,0.121c0.082,0.082 0.191,0.125 0.301,0.125c0.113,-0 0.223,-0.043 0.305,-0.125c0.168,-0.168 0.168,-0.442 0,-0.61l-0.121,-0.122l0.246,-0.246l0.094,0.098c0.086,0.082 0.195,0.125 0.305,0.125c0.109,-0 0.219,-0.043 0.305,-0.125c0.168,-0.172 0.168,-0.442 0,-0.61l-0.094,-0.098l0.516,-0.516l1.725,0.27l-0.282,-1.721Zm-47.128,-20.962c-0,0 1.009,-1.509 1.427,-2.178c0.419,-0.669 -1.083,-2.249 -1.666,-2.749c-0.582,-0.501 -1.501,-0.251 -1.501,-0.251c-7.333,3.25 -11.002,9.918 -11.502,11.252c-0.501,1.333 1.275,2.788 2.585,3.5c0.602,0.329 1.56,-0.399 2.151,-0.939l0.199,-0.203l0.313,-0.317l19.949,19.871l2.726,-2.726l5.01,-5.01l-19.719,-20.222l0.028,-0.028Z" clip-rule="nonzero"/></clipPath><g clip-path="url(#_clip3)"><rect x="188.417" y="-98.94" width="614.802" height="614.802" style="fill:#377da1;"/></g></g><path d="M650.003,171.624l48.527,-0l-0,85.812l-48.505,-0c-5.171,19.973 -13.709,38.572 -25.186,55.005l30.785,30.807l-42.906,42.906l-30.785,-30.807c-16.476,11.478 -35.033,20.037 -55.027,25.186l-0,48.527l-85.812,-0l0,-48.527c-19.973,-5.149 -38.551,-13.708 -55.005,-25.186l-30.807,30.807l-42.906,-42.906l30.807,-30.807c-11.478,-16.411 -20.037,-35.011 -25.186,-55.005l-48.527,-0l0,-85.812l48.527,-0c5.149,-19.994 13.687,-38.573 25.186,-55.006l-30.807,-30.806l42.906,-42.906l30.807,30.806c16.433,-11.498 35.011,-20.037 55.005,-25.185l0,-48.527l85.812,0l-0,48.505c19.994,5.17 38.551,13.709 55.027,25.186l30.785,-30.806l42.906,42.905l-30.807,30.828c11.478,16.433 20.037,35.033 25.186,55.006Zm-166.003,128.718c47.392,-0 85.812,-38.42 85.812,-85.812c-0,-47.393 -38.42,-85.812 -85.812,-85.812c-47.393,-0 -85.812,38.419 -85.812,85.812c0,47.392 38.419,85.812 85.812,85.812Z"/><clipPath id="_clip4"><path d="M650.003,171.624l48.527,-0l-0,85.812l-48.505,-0c-5.171,19.973 -13.709,38.572 -25.186,55.005l30.785,30.807l-42.906,42.906l-30.785,-30.807c-16.476,11.478 -35.033,20.037 -55.027,25.186l-0,48.527l-85.812,-0l0,-48.527c-19.973,-5.149 -38.551,-13.708 -55.005,-25.186l-30.807,30.807l-42.906,-42.906l30.807,-30.807c-11.478,-16.411 -20.037,-35.011 -25.186,-55.005l-48.527,-0l0,-85.812l48.527,-0c5.149,-19.994 13.687,-38.573 25.186,-55.006l-30.807,-30.806l42.906,-42.906l30.807,30.806c16.433,-11.498 35.011,-20.037 55.005,-25.185l0,-48.527l85.812,0l-0,48.505c19.994,5.17 38.551,13.709 55.027,25.186l30.785,-30.806l42.906,42.905l-30.807,30.828c11.478,16.433 20.037,35.033 25.186,55.006Zm-166.003,128.718c47.392,-0 85.812,-38.42 85.812,-85.812c-0,-47.393 -38.42,-85.812 -85.812,-85.812c-47.393,-0 -85.812,38.419 -85.812,85.812c0,47.392 38.419,85.812 85.812,85.812Z"/></clipPath><g clip-path="url(#_clip4)"><rect x="188.417" y="-98.94" width="614.802" height="614.802" style="fill:url(#_Linear5);"/></g></g><g><g transform="matrix(0.538685,0,0,0.538685,-152.951,307.044)"><clipPath id="_clip6"><path d="M314.555,398.017l-0,205.332l76.849,-0c41.199,0.29 79.751,-20.29 79.751,-67.556l-0,-69.059c-0,-47.848 -38.552,-68.717 -79.751,-68.717l-76.849,0Zm52.176,156.636l-0,-108.231l26.414,0c17.417,0 25.834,8.415 25.834,21.762l0,64.127c0,13.347 -8.127,22.342 -25.834,22.342l-26.414,0Zm184.193,-156.636l-51.886,0l-0,205.332l51.886,-0l-0,-205.332Zm22.661,171.131c19.132,24.638 45.22,37.101 69.883,37.101c37.727,0 79.466,-21.739 81.206,-61.462c2.32,-50.487 -34.204,-63.254 -70.755,-69.927c-15.966,-3.482 -26.707,-9.285 -27.288,-19.151c0.871,-23.786 37.738,-24.655 59.201,-1.741l33.914,-26.102c-21.16,-25.794 -45.218,-32.75 -70.182,-32.75c-37.716,0 -74.239,21.157 -74.239,61.464c0,39.171 30.146,60.062 63.208,65.285c16.837,2.321 35.705,8.995 35.125,20.601c-1.451,22.045 -46.737,20.885 -67.317,-4.062l-32.756,30.744Zm278.138,-29.874c-11.312,28.425 -57.723,21.469 -57.723,-3.192l-0,-70.799c-0,-25.53 45.831,-31.327 59.754,-5.803l42.35,-17.118c-16.534,-36.521 -46.991,-47.246 -72.227,-47.246c-41.182,0 -81.763,23.768 -81.763,70.167l0,70.799c0,46.689 40.581,70.167 80.893,70.167c25.816,0 56.853,-12.753 73.967,-46.086l-45.251,-20.889Zm59.21,-3.482c0,46.979 42.61,70.457 85.262,70.457c42.651,0 84.972,-23.478 84.972,-70.457l-0,-70.219c-0,-46.979 -42.611,-70.457 -85.262,-70.457c-42.652,0 -84.972,23.188 -84.972,70.457l0,70.219Zm51.886,-70.219c0,-15.088 16.253,-23.212 32.506,-23.212c16.833,0 33.956,7.253 33.956,23.212l-0,70.219c-0,14.798 -16.543,22.342 -33.086,22.342c-16.543,0 -33.376,-7.254 -33.376,-22.342l0,-70.219Zm255.294,137.776l64.65,-0l-55.954,-70.483c24.928,-7.825 40.291,-29.273 40.291,-67.285c-1.16,-48.144 -33.914,-67.564 -76.268,-67.564l-82.073,0l0,205.332l52.466,-0l0,-65.266l9.288,0l47.6,65.266Zm-56.888,-109.9l0,-47.027l30.477,0c32.788,0 32.788,47.027 0,47.027l-30.477,0Zm134.918,-95.432l-0,205.332l76.849,-0c41.199,0.29 79.751,-20.29 79.751,-67.556l-0,-69.059c-0,-47.848 -38.552,-68.717 -79.751,-68.717l-76.849,0Zm52.176,156.636l-0,-108.231l26.414,0c17.417,0 25.834,8.415 25.834,21.762l0,64.127c0,13.347 -8.127,22.342 -25.834,22.342l-26.414,0Zm122.136,21.157c0,16.244 12.763,29.297 28.717,29.297c15.954,0 29.007,-13.053 29.007,-29.297c-0,-15.953 -13.053,-28.716 -29.007,-28.716c-15.954,-0 -28.717,12.763 -28.717,28.716Zm67.024,-32.763c5.801,43.492 40.899,63.202 76.288,63.202c39.15,0 78.281,-25.218 78.281,-69.876l0,-138.356l-98.006,0l-0,46.955l46.701,-0l-0,91.401c-0,11.896 -12.183,19.731 -24.946,19.731c-12.763,-0 -26.396,-6.674 -29.297,-23.213l-49.021,10.156Zm175.781,26.101c19.132,24.638 45.22,37.101 69.883,37.101c37.726,0 79.466,-21.739 81.205,-61.462c2.321,-50.487 -34.203,-63.254 -70.755,-69.927c-15.966,-3.482 -26.707,-9.285 -27.287,-19.151c0.871,-23.786 37.738,-24.655 59.201,-1.741l33.914,-26.102c-21.16,-25.794 -45.219,-32.75 -70.182,-32.75c-37.716,0 -74.239,21.157 -74.239,61.464c0,39.171 30.146,60.062 63.208,65.285c16.837,2.321 35.705,8.995 35.125,20.601c-1.451,22.045 -46.737,20.885 -67.318,-4.062l-32.755,30.744Zm225.636,-43.247l59.21,-0l-0,77.448l52.176,-0l-0,-205.332l-52.176,0l-0,77.738l-59.21,0l-0,-77.738l-52.176,0l-0,205.332l52.176,-0l-0,-77.448Z" clip-rule="nonzero"/></clipPath><g clip-path="url(#_clip6)"><text x="298.293px" y="603.367px" style="font-family:'UniSansHeavyCAPS', 'Uni Sans';font-weight:900;font-size:290.067px;">Discord<tspan x="1462.04px " y="603.367px ">.</tspan>jsh</text><g transform="matrix(3.50055,0,0,2.25225,-3251.18,-4647.88)"><rect x="780.259" y="1742.99" width="940.071" height="822.562" style="fill:url(#_Linear7);"/></g></g></g></g></g><defs><linearGradient id="_Linear2" x1="0" y1="0" x2="1" y2="0" gradientUnits="userSpaceOnUse" gradientTransform="matrix(614.802,0,0,614.802,188.417,208.461)"><stop offset="0" style="stop-color:#749992;stop-opacity:1"/><stop offset="1" style="stop-color:#588fcd;stop-opacity:1"/></linearGradient><linearGradient id="_Linear5" x1="0" y1="0" x2="1" y2="0" gradientUnits="userSpaceOnUse" gradientTransform="matrix(614.802,0,0,614.802,188.417,208.461)"><stop offset="0" style="stop-color:#749992;stop-opacity:1"/><stop offset="1" style="stop-color:#588fcd;stop-opacity:1"/></linearGradient><linearGradient id="_Linear7" x1="0" y1="0" x2="1" y2="0" gradientUnits="userSpaceOnUse" gradientTransform="matrix(940.071,0,0,822.562,780.259,2154.27)"><stop offset="0" style="stop-color:#749992;stop-opacity:1"/><stop offset="1" style="stop-color:#588fcd;stop-opacity:1"/></linearGradient></defs></svg>