<?xml version="1.0" encoding="UTF-8" standalone="no"?><!DOCTYPE svg PUBLIC "-//W3C//DTD SVG 1.1//EN" "http://www.w3.org/Graphics/SVG/1.1/DTD/svg11.dtd"><svg width="100%" height="100%" viewBox="0 0 4000 4000" version="1.1" xmlns="http://www.w3.org/2000/svg" xmlns:xlink="http://www.w3.org/1999/xlink" xml:space="preserve" xmlns:serif="http://www.serif.com/" style="fill-rule:evenodd;clip-rule:evenodd;stroke-linejoin:round;stroke-miterlimit:2;"><path d="M2000.02,49.384c-1104.43,0 -2000.02,895.385 -2000.02,1999.98c0,883.66 573.065,1633.35 1367.73,1897.81c99.955,18.514 136.651,-43.386 136.651,-96.212c0,-47.692 -1.854,-205.241 -2.715,-372.362c-556.408,120.986 -673.815,-235.976 -673.815,-235.976c-90.98,-231.173 -222.067,-292.643 -222.067,-292.643c-181.461,-124.132 13.678,-121.582 13.678,-121.582c200.837,14.076 306.588,206.103 306.588,206.103c178.38,305.758 467.877,217.363 582.007,166.259c17.951,-129.232 69.783,-217.528 126.98,-267.439c-444.231,-50.573 -911.215,-222.066 -911.215,-988.417c-0,-218.356 78.129,-396.77 206.069,-536.833c-20.766,-50.408 -89.223,-253.794 19.375,-529.281c-0,-0 167.949,-53.753 550.147,205.009c159.537,-44.314 330.631,-66.537 500.601,-67.299c169.968,0.762 341.196,22.985 501.03,67.299c381.735,-258.762 549.452,-205.009 549.452,-205.009c108.864,275.487 40.372,478.873 19.607,529.281c128.237,140.063 205.837,318.477 205.837,536.833c-0,768.173 -467.879,937.313 -913.236,986.827c71.737,62.066 135.658,183.78 135.658,370.375c-0,267.572 -2.319,482.947 -2.319,548.855c0,53.223 36.001,115.587 137.38,95.947c794.237,-264.757 1366.57,-1014.18 1366.57,-1897.55c-0,-1104.6 -895.45,-1999.98 -1999.98,-1999.98Z"/></svg>