<?xml version="1.0" encoding="UTF-8" standalone="no"?><!DOCTYPE svg PUBLIC "-//W3C//DTD SVG 1.1//EN" "http://www.w3.org/Graphics/SVG/1.1/DTD/svg11.dtd"><svg width="100%" height="100%" viewBox="0 0 4000 4000" version="1.1" xmlns="http://www.w3.org/2000/svg" xmlns:xlink="http://www.w3.org/1999/xlink" xml:space="preserve" xmlns:serif="http://www.serif.com/" style="fill-rule:evenodd;clip-rule:evenodd;stroke-linejoin:round;stroke-miterlimit:2;"><g><path d="M4000,759.447c-147.098,65.181 -305.118,109.222 -471.241,129.129c169.471,-101.471 299.48,-262.486 360.786,-454.153c-158.549,94.072 -334.185,162.424 -521.096,199.066c-149.74,-159.253 -362.9,-258.962 -598.961,-258.962c-453.096,-0 -820.576,367.48 -820.576,820.928c0,64.124 7.399,126.486 21.14,186.735c-682.287,-34.352 -1286.71,-361.138 -1691.54,-857.571c-70.466,121.554 -110.984,262.486 -110.984,412.578c-0,284.683 144.984,536.07 365.013,683.168c-134.59,-4.404 -261.076,-41.223 -371.707,-102.704l-0,10.569c-0,397.605 282.744,729.323 658.328,804.722c-69.057,18.673 -141.461,28.538 -216.155,28.538c-52.849,0 -104.465,-4.932 -154.496,-14.445c104.466,325.905 407.469,563.375 766.669,569.717c-280.983,220.206 -634.898,351.449 -1019.29,351.449c-66.238,0 -131.595,-3.876 -195.895,-11.451c363.252,233.066 794.504,368.713 1257.82,368.713c1509.73,0 2335.07,-1250.42 2335.07,-2334.89c-0,-35.233 -0.881,-70.818 -2.466,-106.051c160.31,-115.917 299.48,-260.196 409.231,-424.558l0.352,-0.528Z" style="fill:#1d9bf0;fill-rule:nonzero;"/></g></svg>